<svg width="160" height="926" viewBox="0 0 160 926" fill="none" xmlns="http://www.w3.org/2000/svg">
<path opacity="0.05" fill-rule="evenodd" clip-rule="evenodd" d="M0.16626 934.694L10.6051 903.226C21.0438 871.757 41.9214 808.82 41.3103 746.093C40.6993 683.365 18.5995 620.847 20.1373 558.098C23.8239 495.329 51.1481 432.329 61.2814 369.497C71.4146 306.665 64.3569 244 59.4481 181.314C56.6882 118.608 56.0771 55.8803 55.7715 24.5165L55.466 -6.84729L160.76 -7.87306L161.066 23.4907C161.372 54.8545 161.983 117.582 162.594 180.31C163.205 243.037 163.816 305.765 164.427 368.492C165.038 431.22 165.649 493.947 166.26 556.675C166.871 619.403 167.482 682.13 168.094 744.858C168.705 807.585 169.316 870.313 169.621 901.677L169.927 933.04L0.16626 934.694Z" fill="black"/>
</svg>
