<svg width="1440" height="540" viewBox="0 0 1440 540" fill="none" xmlns="http://www.w3.org/2000/svg">
<g clip-path="url(#clip0_57_22)">
<path fill-rule="evenodd" clip-rule="evenodd" d="M0 0H60C120 0 240 0 360 33.75C480 67.5 600 135 720 180C840 225 960 247.5 1080 236.25C1200 225 1320 180 1380 157.5L1440 135V540H1380C1320 540 1200 540 1080 540C960 540 840 540 720 540C600 540 480 540 360 540C240 540 120 540 60 540H0V0Z" fill="#F2F2F2"/>
<path d="M600.5 531C469.7 217.4 139.333 134.667 -9.5 132.5L-26.5 172V689C237 767 731.3 844.6 600.5 531Z" fill="#56E100"/>
</g>
<defs>
<clipPath id="clip0_57_22">
<rect width="1440" height="1024" fill="white" transform="translate(0 -484)"/>
</clipPath>
</defs>
</svg>
