<svg width="198" height="812" viewBox="0 0 198 812" fill="none" xmlns="http://www.w3.org/2000/svg">
<path fill-rule="evenodd" clip-rule="evenodd" d="M21.2008 810.165L16.8065 776.397C12.4123 742.63 3.62372 675.095 8.90098 607.682C14.1782 540.27 33.5213 472.98 43.4871 405.609C53.453 338.238 54.0416 270.784 45.2531 203.249C36.4646 135.714 18.2988 68.0975 9.21595 34.2891L0.133078 0.48062L197.054 2.19913L196.76 35.9257C196.466 69.6523 195.877 137.106 195.288 204.559C194.7 272.012 194.111 339.465 193.522 406.918C192.934 474.372 192.345 541.825 191.756 609.278C191.168 676.731 190.579 744.185 190.285 777.911L189.99 811.638L21.2008 810.165Z" fill="#F2F2F2"/>
</svg>
