<svg width="1440" height="239" viewBox="0 0 1440 239" fill="none" xmlns="http://www.w3.org/2000/svg">
<path fill-rule="evenodd" clip-rule="evenodd" d="M1447 219.084L1386.71 225.17C1326.42 231.256 1205.83 243.427 1085.25 237.341C964.666 231.256 844.083 206.913 723.5 188.656C602.916 170.399 482.333 158.228 361.75 158.228C241.166 158.228 120.583 170.399 60.2914 176.485L-0.000288192 182.57L-0.000288211 7.33719e-06L60.2914 7.33071e-06C120.583 7.32424e-06 241.166 7.3113e-06 361.75 7.29835e-06C482.333 7.28541e-06 602.916 7.27247e-06 723.5 7.25952e-06C844.083 7.24658e-06 964.666 7.23363e-06 1085.25 7.22069e-06C1205.83 7.20775e-06 1326.42 7.1948e-06 1386.71 7.18833e-06L1447 7.18186e-06L1447 219.084Z" fill="white"/>
</svg>
